<?xml version="1.0" standalone="no"?>
<!DOCTYPE svg PUBLIC "-//W3C//DTD SVG 20010904//EN"
 "http://www.w3.org/TR/2001/REC-SVG-20010904/DTD/svg10.dtd">
<svg version="1.0" xmlns="http://www.w3.org/2000/svg"
 width="300.000000pt" height="300.000000pt" viewBox="0 0 300.000000 300.000000"
 preserveAspectRatio="xMidYMid meet">

<g transform="translate(0.000000,300.000000) scale(0.100000,-0.100000)"
fill="#000000" stroke="none">
<path d="M1380 2990 c-578 -54 -1059 -411 -1271 -943 -117 -292 -134 -653 -44
-962 185 -641 765 -1077 1435 -1077 829 0 1492 663 1492 1492 0 576 -319 1088
-834 1341 -236 115 -532 172 -778 149z m375 -621 c8 -12 2 -20 -17 -23 -38 -5
-54 -46 -18 -46 11 0 20 -7 20 -15 0 -8 -9 -15 -20 -15 -18 0 -20 -7 -20 -65
0 -58 -2 -65 -20 -65 -18 0 -20 7 -20 65 0 37 -4 65 -10 65 -5 0 -10 7 -10 15
0 8 5 15 10 15 6 0 10 6 10 14 0 7 9 25 21 40 21 27 62 35 74 15z m243 -112
c3 -112 2 -117 -18 -117 -19 0 -20 6 -20 121 0 109 2 120 18 117 15 -3 17 -18
20 -121z m-1178 29 l0 -73 -61 -6 c-102 -9 -102 -10 -112 -250 -11 -287 -35
-365 -132 -426 l-45 -28 40 -27 c101 -67 129 -155 138 -440 8 -233 10 -237
112 -244 l60 -4 0 -75 0 -75 -83 3 c-109 5 -168 38 -211 119 -29 53 -29 58
-38 264 -4 116 -13 234 -18 262 -15 70 -53 113 -115 129 l-50 12 -3 77 c-3 71
-1 76 17 76 37 0 101 32 121 60 30 43 40 108 48 330 7 190 10 209 34 261 42
92 104 127 226 128 l72 1 0 -74z m268 58 c26 -18 30 -65 7 -84 -11 -10 -12
-17 -3 -33 6 -12 15 -37 19 -55 6 -30 5 -33 -14 -30 -14 2 -24 15 -31 43 -10
33 -16 41 -39 43 -26 3 -27 1 -27 -42 0 -39 -3 -46 -20 -46 -19 0 -20 7 -20
110 l0 110 53 0 c31 0 61 -6 75 -16z m192 1 c0 -11 -12 -15 -45 -15 -43 0 -45
-1 -45 -30 0 -28 2 -30 40 -30 29 0 40 -4 40 -15 0 -11 -11 -15 -40 -15 -39 0
-40 -1 -40 -34 0 -34 1 -35 47 -38 26 -2 48 -9 51 -15 3 -10 -15 -13 -67 -13
l-71 0 0 110 0 110 65 0 c51 0 65 -3 65 -15z m160 -5 c0 -18 -5 -20 -32 -15
-63 11 -78 -33 -21 -57 63 -27 82 -71 46 -110 -23 -26 -123 -26 -123 0 0 15 8
18 48 18 42 -1 47 1 47 21 0 17 -12 29 -45 45 -34 18 -46 29 -48 50 -5 41 28
68 83 68 39 0 45 -3 45 -20z m200 5 c0 -10 -11 -15 -35 -15 l-35 0 0 -95 c0
-88 -1 -95 -20 -95 -19 0 -20 7 -20 95 l0 95 -35 0 c-24 0 -35 5 -35 15 0 12
17 15 90 15 73 0 90 -3 90 -15z m706 -4 c22 -10 57 -38 77 -61 50 -59 65 -137
70 -370 5 -205 16 -250 69 -295 16 -14 47 -28 69 -31 l39 -7 0 -77 0 -77 -39
-7 c-22 -3 -53 -17 -69 -31 -54 -45 -63 -88 -72 -330 -10 -256 -18 -293 -85
-354 -50 -46 -95 -61 -187 -61 l-68 0 0 75 0 75 45 0 c25 0 61 6 80 14 46 19
52 49 58 276 7 248 29 315 124 385 23 16 42 32 42 35 0 3 -19 19 -42 35 -95
69 -116 136 -123 385 -7 228 -13 257 -59 276 -19 8 -55 14 -80 14 l-45 0 0 75
0 75 78 0 c53 0 90 -6 118 -19z m-546 -89 c0 -55 18 -86 46 -80 16 3 19 13 22
66 3 54 6 62 22 62 18 0 20 -7 20 -79 l0 -79 -57 -1 c-31 0 -63 5 -70 11 -20
16 -18 148 2 148 11 0 15 -12 15 -48z m-720 -605 c51 -27 90 -90 90 -147 0
-57 -39 -120 -90 -147 -78 -42 -155 -24 -214 50 -27 33 -31 47 -31 97 0 50 4
64 31 97 59 74 136 92 214 50z m487 2 c124 -60 122 -239 -3 -299 -85 -42 -179
-8 -224 80 -25 49 -25 90 -1 138 48 93 137 125 228 81z m494 -2 c118 -63 118
-231 0 -294 -24 -13 -60 -23 -79 -23 -105 0 -192 112 -163 210 33 111 142 159
242 107z m-644 -902 c43 -125 42 -120 18 -120 -13 0 -22 10 -29 33 -8 29 -13
32 -46 32 -33 0 -39 -4 -49 -30 -10 -29 -36 -49 -48 -37 -5 6 48 168 69 210 6
11 18 17 30 15 16 -2 27 -24 55 -103z m194 87 c30 -25 31 -78 0 -103 -12 -10
-38 -21 -57 -25 -32 -6 -34 -9 -34 -46 0 -32 -3 -39 -17 -36 -16 3 -18 17 -21
102 -1 55 0 106 2 113 8 21 99 17 127 -5z m99 -97 c0 -108 -1 -115 -20 -115
-19 0 -20 7 -20 115 0 108 1 115 20 115 19 0 20 -7 20 -115z"/>
<path d="M1000 2295 c0 -30 3 -35 23 -35 42 0 66 50 31 64 -39 15 -54 7 -54
-29z"/>
<path d="M1343 760 c-10 -38 -9 -40 13 -40 28 0 29 6 11 49 l-13 31 -11 -40z"/>
<path d="M1520 780 c0 -38 2 -40 30 -40 25 0 50 21 50 44 0 14 -34 36 -56 36
-21 0 -24 -4 -24 -40z"/>
</g>
</svg>
